<svg aria-hidden="true" style="position:absolute;width:0;height:0;overflow:hidden" xmlns="http://www.w3.org/2000/svg">
  <defs>
    <symbol id="icon-check_form" viewBox="0 0 32 32">
      <path d="M4.817 15.39l-0.17-0.162-0.17 0.16-2.373 2.25 0.187 0.18 8.775 8.369 0.17-0.162 18.658-17.799-0.187-0.177-2.341-2.233-0.17 0.162-16.13 15.375-6.25-5.962z"></path>
    </symbol>
    <symbol id="icon-letter_form" viewBox="0 0 32 32">
      <path d="M26.667 5.333h-21.333c-1.467 0-2.652 1.2-2.652 2.667l-0.014 16c0 1.467 1.2 2.667 2.667 2.667h21.333c1.467 0 2.667-1.2 2.667-2.667v-16c0-1.467-1.2-2.667-2.667-2.667zM26.133 11.001l-9.426 5.892c-0.201 0.126-0.446 0.2-0.708 0.2s-0.506-0.075-0.713-0.204l0.006 0.003-9.426-5.892c-0.336-0.201-0.557-0.562-0.557-0.975 0-0.625 0.507-1.132 1.132-1.132 0.233 0 0.449 0.070 0.629 0.19l-0.004-0.003 8.933 5.586 8.933-5.588c0.176-0.118 0.392-0.188 0.624-0.188 0.625 0 1.132 0.507 1.132 1.132 0 0.413-0.221 0.775-0.552 0.972l-0.005 0.003z"></path>
    </symbol>
    <symbol id="icon-person_form" viewBox="0 0 32 32">
      <path d="M16 16c2.946 0 5.333-2.388 5.333-5.333s-2.388-5.333-5.333-5.333v0c-2.946 0-5.333 2.388-5.333 5.333s2.388 5.333 5.333 5.333v0zM16 18.667c-3.561 0-10.667 1.787-10.667 5.333v1.333c0 0.732 0.599 1.333 1.333 1.333h18.667c0.732 0 1.333-0.601 1.333-1.333v-1.333c0-3.547-7.108-5.333-10.667-5.333z"></path>
    </symbol>
    <symbol id="icon-phone_form" viewBox="0 0 32 32">
      <path d="m28.853 21.796-4.516-.516a3.525 3.525 0 0 0-2.916 1.014l-3.271 3.271c-5.07-2.616-9.099-6.646-11.645-11.566l-.07-.149 3.289-3.289a3.538 3.538 0 0 0 1.013-2.916l-.516-4.48A3.562 3.562 0 0 0 6.687.018H3.608c-2.009 0-3.68 1.671-3.556 3.68.942 15.182 13.084 27.307 28.249 28.249 2.009.124 3.68-1.547 3.68-3.556v-3.076c.018-1.796-1.333-3.307-3.129-3.52z"/>
    </symbol>
    <symbol id="icon-telegram_icon_send" viewBox="0 0 32 32">
      <path d="M32 0l-32 18 10.227 3.787 15.773-14.787-11.997 16.187 0.009 0.003-0.012-0.003v8.813l5.735-6.691 7.267 2.691 4.999-28z"></path>
    </symbol>

    <symbol id="icon-facebook" viewBox="0 0 32 32">
      <path d="M21.328 5.312h2.923V.224A36.483 36.483 0 0 0 20.143 0h-.156.008c-4.213 0-7.099 2.65-7.099 7.52V12H8.25v5.688h4.646V32h5.699V17.69h4.459l.707-5.688h-5.168V8.08c0-1.643.443-2.768 2.734-2.768z"/>
    </symbol>
    <symbol id="icon-instagram" viewBox="0 0 32 32">
      <path d="M31.968 9.408c-.074-1.701-.349-2.869-.742-3.882a7.839 7.839 0 0 0-1.85-2.837l-.001-.001A7.906 7.906 0 0 0 26.597.861l-.054-.018C25.524.449 24.362.176 22.661.101 20.949.019 20.405 0 16.059 0c-4.344 0-4.888.019-6.595.094-1.699.074-2.869.349-3.88.742a7.847 7.847 0 0 0-2.839 1.85l-.001.001A7.9 7.9 0 0 0 .919 5.465l-.018.054C.506 6.538.232 7.7.157 9.401c-.082 1.712-.101 2.256-.101 6.602 0 4.344.019 4.888.094 6.595.075 1.701.35 2.869.744 3.882a7.915 7.915 0 0 0 1.849 2.837l.001.001c.8.813 1.77 1.443 2.832 1.843 1.019.395 2.182.67 3.882.744 1.707.075 2.251.094 6.595.094 4.346 0 4.89-.019 6.595-.094 1.701-.074 2.869-.349 3.882-.742a8.237 8.237 0 0 0 4.664-4.628l.019-.055c.394-1.019.669-2.182.744-3.882.075-1.707.093-2.251.093-6.595s-.006-4.888-.08-6.595zm-2.88 13.066c-.07 1.563-.333 2.406-.55 2.97a5.341 5.341 0 0 1-3.004 3.024l-.036.012c-.56.219-1.411.482-2.968.55-1.688.075-2.194.094-6.464.094-4.269 0-4.782-.019-6.464-.094-1.563-.069-2.406-.331-2.97-.55a4.953 4.953 0 0 1-1.836-1.192l-.001-.001a4.978 4.978 0 0 1-1.184-1.803L3.6 25.45c-.218-.563-.48-1.413-.549-2.97-.075-1.688-.094-2.195-.094-6.464 0-4.27.019-4.784.094-6.464.069-1.563.331-2.406.549-2.97a4.897 4.897 0 0 1 1.198-1.837l.002-.002a4.972 4.972 0 0 1 1.806-1.182l.034-.011c.56-.219 1.411-.48 2.968-.55 1.688-.074 2.195-.093 6.464-.093 4.275 0 4.782.019 6.464.093 1.563.069 2.406.331 2.97.55a4.91 4.91 0 0 1 1.837 1.194c.531.52.938 1.144 1.195 1.84.218.56.48 1.411.549 2.968.075 1.688.094 2.194.094 6.464 0 4.269-.019 4.768-.094 6.458z"/>
      <path d="M16.059 7.782a8.223 8.223 0 0 0-8.219 8.221 8.223 8.223 0 0 0 16.442.008v-.009a8.223 8.223 0 0 0-8.221-8.221zm0 13.552a5.333 5.333 0 0 1 .001-10.666h.001a5.334 5.334 0 1 1 0 10.668zM26.525 7.458a1.92 1.92 0 0 1-3.84 0 1.92 1.92 0 0 1 3.84 0z"/>
    </symbol>
    <symbol id="icon-linkedin" viewBox="0 0 32 32">
      <path d="M31.992 32H32V20.262c0-5.741-1.237-10.163-7.947-10.163-3.227 0-5.392 1.77-6.277 3.45h-.093v-2.914h-6.365v21.363h6.627V21.42c0-2.786.528-5.48 3.978-5.48 3.398 0 3.448 3.179 3.448 5.658V32h6.621zM.528 10.635h6.635V32H.528V10.635zM3.843 0A3.843 3.843 0 0 0 0 3.843c0 2.12 1.722 3.878 3.843 3.878 2.12 0 3.842-1.757 3.842-3.878S5.965.002 3.844 0z"/>
    </symbol>
    <symbol id="icon-smartphone" viewBox="0 0 20 32">
      <path d="M17 0H3C1.346 0 0 1.346 0 3v26c0 1.654 1.346 3 3 3h14c1.654 0 3-1.346 3-3V3c0-1.654-1.346-3-3-3zM3 2h14a1 1 0 0 1 1 1v21H2V3a1 1 0 0 1 1-1zm14 28H3a1 1 0 0 1-1-1v-3h16v3a1 1 0 0 1-1 1z"/>
      <path d="M4.708 27.478a.889.889 0 0 1 .001 1.319l-.001.001a1.048 1.048 0 0 1-1.417 0l.001.001a.889.889 0 0 1-.001-1.319l.001-.001a1.048 1.048 0 0 1 1.417 0l-.001-.001z"/>
    </symbol>
    <symbol id="icon-close" viewBox="0 0 32 32">
      <path d="M18.613 15.912l12.96-12.96c0.268-0.309 0.431-0.716 0.431-1.161 0-0.982-0.796-1.777-1.777-1.777-0.445 0-0.851 0.163-1.163 0.433l0.002-0.002-12.96 12.96-12.96-12.979c-0.309-0.268-0.716-0.431-1.161-0.431-0.982 0-1.777 0.796-1.777 1.777 0 0.445 0.163 0.851 0.433 1.163l-0.002-0.002 12.96 12.977-12.979 12.96c-0.394 0.329-0.642 0.82-0.642 1.369 0 0.983 0.797 1.78 1.78 1.78 0.549 0 1.040-0.249 1.367-0.639l0.002-0.003 12.977-12.96 12.96 12.96c0.309 0.268 0.716 0.431 1.161 0.431 0.982 0 1.777-0.796 1.777-1.777 0-0.445-0.163-0.851-0.433-1.163l0.002 0.002-12.96-12.96z"></path>
    </symbol>
    <symbol id="icon-mob_menu" viewBox="0 0 32 32">
      <path d="M32 9a1 1 0 0 1-1 1H1a1 1 0 0 1 0-2h30a1 1 0 0 1 1 1zm0 16a1 1 0 0 1-1 1H1a1 1 0 0 1 0-2h30a1 1 0 0 1 1 1zm0-8.008a.992.992 0 0 1-.992.992H.992a.992.992 0 1 1 0-1.984h30.016c.548 0 .992.444.992.992z"/>
    </symbol>
    <symbol id="icon-paper-clip" viewBox="0 0 35 32">
      <path d="M6.301 32c-1.488 0-2.811-0.56-3.968-1.678-1.221-1.184-1.832-2.618-1.832-4.306 0-1.69 0.611-3.125 1.832-4.307l19.168-19.677c0.897-0.911 2.047-1.57 3.337-1.863l0.046-0.009c0.461-0.104 0.991-0.164 1.535-0.164 0.841 0 1.648 0.143 2.399 0.405l-0.051-0.016c1.312 0.432 2.523 1.173 3.634 2.227 0.352 0.363 0.676 0.758 0.964 1.179l0.020 0.031c0.299 0.44 0.544 0.902 0.733 1.387 0.369 0.933 0.583 2.014 0.584 3.145v0c-0.045 2.278-0.845 4.182-2.4 5.709l-14.501 14.902c-0.181 0.202-0.441 0.332-0.731 0.339l-0.001 0c-0.017 0.001-0.037 0.002-0.056 0.002-0.269 0-0.513-0.105-0.695-0.276l0 0c-0.2-0.18-0.327-0.438-0.333-0.725v-0.001c-0.001-0.016-0.001-0.035-0.001-0.053 0-0.274 0.109-0.523 0.285-0.706l-0 0 14.499-14.902c1.178-1.162 1.778-2.603 1.8-4.323s-0.544-3.13-1.699-4.226c-0.661-0.67-1.447-1.213-2.32-1.594l-0.048-0.019c-0.605-0.259-1.308-0.409-2.046-0.409-0.266 0-0.527 0.019-0.783 0.057l0.029-0.003c-0.998 0.128-1.888 0.57-2.666 1.323l-19.168 19.677c-0.821 0.797-1.232 1.754-1.232 2.872 0 1.117 0.411 2.075 1.232 2.87 0.379 0.365 0.79 0.64 1.235 0.822 0.443 0.182 0.912 0.253 1.4 0.21 0.976-0.043 1.888-0.483 2.733-1.323l15.232-15.677c0.234-0.226 0.443-0.474 0.625-0.742l0.010-0.016c0.205-0.302 0.348-0.662 0.399-1.052l0.001-0.012c0.004-0.032 0.006-0.070 0.006-0.107 0-0.167-0.039-0.324-0.109-0.463l0.003 0.006c-0.103-0.214-0.237-0.395-0.399-0.548l-0.001-0.001c-0.422-0.429-0.832-0.624-1.232-0.581-0.424 0.043-0.901 0.312-1.434 0.806l-11.467 11.808c-0.128 0.123-0.284 0.217-0.459 0.27l-0.008 0.002c-0.093 0.029-0.199 0.046-0.309 0.046-0.28 0-0.535-0.109-0.725-0.287l0.001 0.001c-0.204-0.168-0.333-0.42-0.333-0.702 0-0.003 0-0.006 0-0.009v0c0-0.28 0.099-0.528 0.299-0.742l11.467-11.838c0.912-0.859 1.834-1.333 2.768-1.419 1.066-0.086 2.043 0.301 2.933 1.162 0.843 0.795 1.216 1.731 1.117 2.806-0.101 1.075-0.64 2.086-1.616 3.032l-15.237 15.71c-1.243 1.203-2.634 1.85-4.166 1.936-0.054 0.001-0.105 0.006-0.156 0.017l0.005-0.001c-0.044 0.010-0.096 0.015-0.148 0.016h-0z"></path>
    </symbol>
    <symbol id="icon-twitter" viewBox="0 0 32 32">
      <path d="M32 6.078c-1.1.493-2.376.857-3.713 1.028l-.068.007a6.556 6.556 0 0 0 2.873-3.579l.013-.046a12.88 12.88 0 0 1-4.076 1.573l-.084.014A6.558 6.558 0 0 0 15.6 9.557v.004c0 .52.043 1.021.152 1.496-5.454-.266-10.28-2.88-13.522-6.861a6.524 6.524 0 0 0-.902 3.313v.001a6.57 6.57 0 0 0 2.914 5.451 6.453 6.453 0 0 1-2.994-.823l.033.017v.072a6.592 6.592 0 0 0 5.213 6.44l.043.008a6.403 6.403 0 0 1-1.662.215h-.061.003c-.419 0-.843-.024-1.242-.112.85 2.598 3.261 4.509 6.13 4.57a13.093 13.093 0 0 1-8.122 2.8H1.57h.001-.062c-.531 0-1.055-.034-1.569-.099l.061.006c2.826 1.846 6.287 2.944 10.004 2.944h.063-.003c12.072 0 18.672-10 18.672-18.669 0-.288-.01-.57-.024-.848a13.203 13.203 0 0 0 3.258-3.355l.03-.047z"/>
    </symbol>
  </defs>
</svg>
