<svg aria-hidden="true" style="position: absolute; width: 0; height: 0; overflow: hidden;" version="1.1" xmlns="http://www.w3.org/2000/svg" xmlns:xlink="http://www.w3.org/1999/xlink">
<defs>
    <symbol id="icon-arrow-down" viewBox="0 0 30 32">
        <path d="M15.257 3.57c-0.001 0-0.002 0-0.004 0-0.501 0-0.907 0.406-0.907 0.907 0 0.003 0 0.006 0 0.009v-0 21.559l-5.721-5.755c-0.165-0.168-0.394-0.272-0.647-0.272-0.501 0-0.907 0.406-0.907 0.907 0 0.004 0 0.009 0 0.013v-0.001c0 0.244 0.096 0.476 0.267 0.647l7.275 7.314c0.165 0.165 0.394 0.267 0.646 0.267 0.125 0 0.244-0.025 0.352-0.070l-0.006 0.002c0.115-0.049 0.213-0.116 0.295-0.199l0-0 7.275-7.314c0.153-0.163 0.248-0.383 0.248-0.626 0-0.505-0.409-0.914-0.914-0.914-0.241 0-0.46 0.093-0.623 0.246l0.001-0-5.721 5.755v-21.559c-0.001-0.503-0.406-0.911-0.908-0.916h-0z"></path>
    </symbol>
</defs>
</svg>
