<svg aria-hidden="true" style="position: absolute; width: 0; height: 0; overflow: hidden;" version="1.1" xmlns="http://www.w3.org/2000/svg" xmlns:xlink="http://www.w3.org/1999/xlink">
<defs>
<symbol id="icon-arrow-down" viewBox="0 0 30 32">
<path d="M15.257 3.57c-0.001 0-0.002 0-0.004 0-0.501 0-0.907 0.406-0.907 0.907 0 0.003 0 0.006 0 0.009v-0 21.559l-5.721-5.755c-0.165-0.168-0.394-0.272-0.647-0.272-0.501 0-0.907 0.406-0.907 0.907 0 0.004 0 0.009 0 0.013v-0.001c0 0.244 0.096 0.476 0.267 0.647l7.275 7.314c0.165 0.165 0.394 0.267 0.646 0.267 0.125 0 0.244-0.025 0.352-0.070l-0.006 0.002c0.115-0.049 0.213-0.116 0.295-0.199l0-0 7.275-7.314c0.153-0.163 0.248-0.383 0.248-0.626 0-0.505-0.409-0.914-0.914-0.914-0.241 0-0.46 0.093-0.623 0.246l0.001-0-5.721 5.755v-21.559c-0.001-0.503-0.406-0.911-0.908-0.916h-0z"></path>
</symbol>
<symbol id="cross" viewBox="0 0 32 32">
    <path d="M18.613 15.912l12.96-12.96c0.268-0.309 0.431-0.716 0.431-1.161 0-0.982-0.796-1.777-1.777-1.777-0.445 0-0.851 0.163-1.163 0.433l0.002-0.002-12.96 12.96-12.96-12.979c-0.309-0.268-0.716-0.431-1.161-0.431-0.982 0-1.777 0.796-1.777 1.777 0 0.445 0.163 0.851 0.433 1.163l-0.002-0.002 12.96 12.977-12.979 12.96c-0.394 0.329-0.642 0.82-0.642 1.369 0 0.983 0.797 1.78 1.78 1.78 0.549 0 1.040-0.249 1.367-0.639l0.002-0.003 12.977-12.96 12.96 12.96c0.309 0.268 0.716 0.431 1.161 0.431 0.982 0 1.777-0.796 1.777-1.777 0-0.445-0.163-0.851-0.433-1.163l0.002 0.002-12.96-12.96z"></path>
</symbol>
<symbol id="menu" viewBox="0 0 32 32">
    <path d="M32 9a1 1 0 0 1-1 1H1a1 1 0 0 1 0-2h30a1 1 0 0 1 1 1zm0 16a1 1 0 0 1-1 1H1a1 1 0 0 1 0-2h30a1 1 0 0 1 1 1zm0-8.008a.992.992 0 0 1-.992.992H.992a.992.992 0 1 1 0-1.984h30.016c.548 0 .992.444.992.992z"/>
</symbol>
<symbol id="phone" viewBox="0 0 32 32">
    <path d="m28.853 21.796-4.516-.516a3.525 3.525 0 0 0-2.916 1.014l-3.271 3.271c-5.07-2.616-9.099-6.646-11.645-11.566l-.07-.149 3.289-3.289a3.538 3.538 0 0 0 1.013-2.916l-.516-4.48A3.562 3.562 0 0 0 6.687.018H3.608c-2.009 0-3.68 1.671-3.556 3.68.942 15.182 13.084 27.307 28.249 28.249 2.009.124 3.68-1.547 3.68-3.556v-3.076c.018-1.796-1.333-3.307-3.129-3.52z"/>
</symbol>
<symbol id="Header" viewBox="0 0 38 32">
    <path d="M0 0h38.4v32H0z"/>
</symbol>
</defs>
</svg>
